<svg xmlns="http://www.w3.org/2000/svg" xmlns:xlink="http://www.w3.org/1999/xlink" width="197.093" height="23.754" viewBox="0 0 197.093 23.754">
  <defs>
    <clipPath id="clip-path">
      <rect id="Rectangle_4" data-name="Rectangle 4" width="197.093" height="23.754" fill="#fff"/>
    </clipPath>
  </defs>
  <g id="Group_1" data-name="Group 1" clip-path="url(#clip-path)">
    <path id="Path_1" data-name="Path 1" d="M2.638,23.559h0A2.639,2.639,0,0,1,0,20.921V3.7a2.638,2.638,0,0,1,5.277,0V20.921a2.639,2.639,0,0,1-2.638,2.638" transform="translate(0 -0.373)" fill="#fff"/>
    <path id="Path_2" data-name="Path 2" d="M13.611,12.178h0a2.629,2.629,0,0,1,2.345-2.623C21.773,8.96,26.536,6.2,27.749,2.775a2.642,2.642,0,0,1,4.973,1.781c-1.918,5.4-8.213,9.45-16.194,10.25a2.646,2.646,0,0,1-2.916-2.628" transform="translate(-4.766 -0.373)" fill="#fff"/>
    <path id="Path_3" data-name="Path 3" d="M30.236,28.268h0a2.622,2.622,0,0,1-2.486-1.71c-1.213-3.429-5.976-6.185-11.794-6.78a2.641,2.641,0,0,1,.572-5.251c7.981.8,14.277,4.849,16.194,10.25a2.627,2.627,0,0,1-2.486,3.491" transform="translate(-4.766 -5.082)" fill="#fff"/>
    <path id="Path_4" data-name="Path 4" d="M55.451,23.56h0a2.639,2.639,0,0,1-2.638-2.638V8.979A8.05,8.05,0,0,1,60.862.929h11a8.269,8.269,0,0,1,5.652,2.157,8,8,0,0,1,2.566,5.893V20.922a2.639,2.639,0,0,1-5.277,0V9.071a2.893,2.893,0,0,0-.728-1.965,2.756,2.756,0,0,0-2.044-.9H60.862A2.773,2.773,0,0,0,58.09,8.979V20.922a2.639,2.639,0,0,1-2.638,2.638" transform="translate(-18.494 -0.325)" fill="#fff"/>
    <rect id="Rectangle_2" data-name="Rectangle 2" width="21.989" height="5.277" transform="translate(36.958 10.164)" fill="#fff"/>
    <path id="Path_5" data-name="Path 5" d="M233.937,23.472h0a2.639,2.639,0,0,1-2.638-2.638V8.891a2.773,2.773,0,0,0-2.773-2.773H217.36a2.773,2.773,0,0,0-2.773,2.773V20.834a2.639,2.639,0,0,1-5.277,0V8.891A8.05,8.05,0,0,1,217.36.842h11.166a8.05,8.05,0,0,1,8.049,8.049V20.834a2.639,2.639,0,0,1-2.638,2.638" transform="translate(-73.294 -0.295)" fill="#fff"/>
    <rect id="Rectangle_3" data-name="Rectangle 3" width="21.989" height="5.277" transform="translate(138.654 10.107)" fill="#fff"/>
    <path id="Path_6" data-name="Path 6" d="M126.4,23.447h-6.7a4.334,4.334,0,0,1-4.321-4.082L113.323,7.276a1.477,1.477,0,0,0-2.934.247V20.784a2.639,2.639,0,0,1-5.277,0V6.387A5.618,5.618,0,0,1,110.73.769h3.218a4.334,4.334,0,0,1,4.317,4.02c0,.04.007.081.014.12l1.88,11.078a2.621,2.621,0,0,0,2.584,2.183h1.782a2.4,2.4,0,0,0,2.4-2.4V3.407a2.638,2.638,0,1,1,5.277,0V17.641a5.806,5.806,0,0,1-5.806,5.806" transform="translate(-36.807 -0.269)" fill="#fff"/>
    <path id="Path_7" data-name="Path 7" d="M282.9,23.447h-6.7a4.334,4.334,0,0,1-4.317-4.023,1.157,1.157,0,0,0-.014-.116L269.82,7.276a1.477,1.477,0,0,0-2.934.247V20.784a2.639,2.639,0,0,1-5.277,0V6.575A5.806,5.806,0,0,1,267.415.769h3.03a4.335,4.335,0,0,1,4.318,4.023,1.147,1.147,0,0,0,.013.116l2.042,12.031a1.478,1.478,0,0,0,1.457,1.23h3.672a1.477,1.477,0,0,0,1.477-1.477V3.557a2.639,2.639,0,0,1,5.277,0V17.641a5.806,5.806,0,0,1-5.806,5.806" transform="translate(-91.608 -0.269)" fill="#fff"/>
    <path id="Path_8" data-name="Path 8" d="M176.634,25.151h0A2.638,2.638,0,0,1,174,22.512V6.628a2.639,2.639,0,1,1,5.277,0V22.512a2.639,2.639,0,0,1-2.638,2.638" transform="translate(-60.929 -1.397)" fill="#fff"/>
    <path id="Path_9" data-name="Path 9" d="M181.336,6.309a57.861,57.861,0,0,0-21.28-.068,2.644,2.644,0,1,1-1.026-5.187,62.466,62.466,0,0,1,23.276.066,2.639,2.639,0,1,1-.97,5.188" transform="translate(-54.941 0)" fill="#fff"/>
    <path id="Path_10" data-name="Path 10" d="M182,20.48H158.913a2.687,2.687,0,1,1,0-5.373H182a2.687,2.687,0,0,1,0,5.373" transform="translate(-54.706 -5.29)" fill="#fff"/>
  </g>
</svg>
